<svg viewBox="0 0 400 300" xmlns="http://www.w3.org/2000/svg"><path d="m209.19 279.45 166.6-93.45a8 8 0 0 0 .3-13.71l-161.51-100.11a8 8 0 0 0 -8.19-.12l-176.22 102.28a8 8 0 0 0 0 13.77l157.14 91.19a22.07 22.07 0 0 0 21.88.15z" fill="#383097"/><path d="m120 149.5-23.78 14.41s-4.75.86-5.76-3.46-10.66-9.51-17.58-5.62-.58 9.36 6.77 10.23 6.77 2.59 5.19 4.47-21.32 13.11-21.32 13.11l23.63 14.12s4.32 1.73 2.59 4-6.63-3.31-12 2.16 5.47 10.37 12 9.51 6.91-3.43 6.91-5.43 1.87-2.88 3.75-2 28.53 15.42 28.53 15.42l22.18-13.42s-10.09.58-14.12-4.61-2.88-10.95 4.9-11.81 18.59 2.74 18.3 10.37l24.35-13.11-28-16.28s-4 12-18.87 8.79-8.67-13.8 10.33-14.35z" fill="#68e1fd"/><path d="m69.9 143.58v15s2.76 3.42 9.1 2.81 9-9.7 9-9.7" fill="#68e1fd"/><path d="m63.5 167.72v14.92l13.92 6.76-1 2.46-.08 14.45s7.29 1.67 10.88 0 5.17-7.15 8.88-7.52 40.9 10.87 40.9 10.87l14.11-2.66v-14.93s-18.87 8.95-25.41.17" fill="#68e1fd"/><path d="m184.54 187.82v-14.91l-36.54-6.91v-14.94s-11.89-.29-12.06-.23-16.29 4.09-8.86 13.65-4.51 18.19 6.24 19.91" fill="#68e1fd"/><g fill="#00275e" opacity=".36"><path d="m120 149.5-23.78 14.41s-4.75.86-5.76-3.46-10.66-9.51-17.58-5.62-.58 9.36 6.77 10.23 6.77 2.59 5.19 4.47-21.32 13.11-21.32 13.11l23.63 14.12s4.32 1.73 2.59 4-6.63-3.31-12 2.16 5.47 10.37 12 9.51 6.91-3.43 6.91-5.43 1.87-2.88 3.75-2 28.53 15.42 28.53 15.42l22.18-13.42s-10.09.58-14.12-4.61-2.88-10.95 4.9-11.81 18.59 2.74 18.3 10.37l24.35-13.11-28-16.28s-4 12-18.87 8.79-8.67-13.8 10.33-14.35z"/><path d="m69.9 143.58v15s2.76 3.42 9.1 2.81 9-9.7 9-9.7"/><path d="m63.5 167.72v14.92l13.92 6.76-1 2.46-.08 14.45s7.29 1.67 10.88 0 5.17-7.15 8.88-7.52 40.9 10.87 40.9 10.87l14.11-2.66v-14.93s-18.87 8.95-25.41.17"/><path d="m184.54 187.82v-14.91l-36.54-6.91v-14.94s-11.89-.29-12.06-.23-16.29 4.09-8.86 13.65-4.51 18.19 6.24 19.91"/></g><g fill="#68e1fd"><path d="m120 134.58-23.79 14.42s-4.75.86-5.76-3.46-10.67-9.54-17.58-5.63-.58 9.36 6.77 10.23 6.77 2.59 5.19 4.47-21.33 13.11-21.33 13.11l23.63 14.12s4.32 1.73 2.59 4-6.63-3.31-12 2.16 5.47 10.37 12 9.51 6.92-3.46 6.92-5.47 1.87-2.88 3.75-2 28.53 15.42 28.53 15.42l22.19-13.4s-10.09.58-14.12-4.61-2.88-10.95 4.9-11.81 18.59 2.74 18.3 10.37l24.35-13.11-28-16.28s-4 12-18.87 8.79-8.76-13.78 10.26-14.36z"/><path d="m286.61 150.2-23.77 14.41s-4.75.86-5.76-3.46-10.66-9.51-17.58-5.62-.58 9.36 6.77 10.23 6.77 2.59 5.19 4.47-21.32 13.11-21.32 13.11l23.63 14.12s4.32 1.73 2.59 4-6.63-3.31-12 2.16 5.47 10.37 12 9.51 6.92-3.46 6.92-5.47 1.87-2.88 3.75-2 28.53 15.42 28.53 15.42l22.19-13.4s-10.09.58-14.12-4.61-2.88-10.95 4.9-11.81 18.59 2.74 18.3 10.37l24.35-13.11-28-16.28s-4 12-18.87 8.79-8.76-13.78 10.26-14.36z"/><path d="m236.51 144.29v15s2.76 3.44 9.12 2.79 9-9.7 9-9.7"/><path d="m230.12 168.42v14.92l13.88 6.76-1 2.46v14.44s7.29 1.67 10.88 0 5.17-7.15 8.88-7.52 40.88 10.88 40.88 10.88l14.09-2.67v-14.92s-18.87 8.95-25.41.17"/><path d="m351.15 188.53v-14.92l-36.57-6.93v-14.92s-11.89-.29-12.06-.23-16.29 4.09-8.86 13.65-4.51 18.19 6.24 19.91"/></g><g fill="#00275e" opacity=".36"><path d="m286.61 150.2-23.77 14.41s-4.75.86-5.76-3.46-10.66-9.51-17.58-5.62-.58 9.36 6.77 10.23 6.77 2.59 5.19 4.47-21.32 13.11-21.32 13.11l23.63 14.12s4.32 1.73 2.59 4-6.63-3.31-12 2.16 5.47 10.37 12 9.51 6.92-3.46 6.92-5.47 1.87-2.88 3.75-2 28.53 15.42 28.53 15.42l22.19-13.4s-10.09.58-14.12-4.61-2.88-10.95 4.9-11.81 18.59 2.74 18.3 10.37l24.35-13.11-28-16.28s-4 12-18.87 8.79-8.76-13.78 10.26-14.36z"/><path d="m236.51 144.29v15s2.76 3.44 9.12 2.79 9-9.7 9-9.7"/><path d="m230.12 168.42v14.92l13.88 6.76-1 2.46v14.44s7.29 1.67 10.88 0 5.17-7.15 8.88-7.52 40.88 10.88 40.88 10.88l14.09-2.67v-14.92s-18.87 8.95-25.41.17"/><path d="m351.15 188.53v-14.92l-36.57-6.93v-14.92s-11.89-.29-12.06-.23-16.29 4.09-8.86 13.65-4.51 18.19 6.24 19.91"/></g><path d="m286.6 135.29-23.77 14.41s-4.75.86-5.76-3.46-10.66-9.51-17.58-5.62-.58 9.36 6.77 10.23 6.77 2.59 5.19 4.47-21.32 13.11-21.32 13.11l23.63 14.12s4.32 1.73 2.59 4-6.63-3.31-12 2.16 5.47 10.37 12 9.51 6.92-3.46 6.92-5.47 1.87-2.88 3.75-2 28.53 15.42 28.53 15.42l22.19-13.4s-10.09.58-14.12-4.61-2.88-10.95 4.9-11.81 18.59 2.74 18.3 10.37l24.35-13.11-28-16.28s-4 12-18.87 8.79-8.76-13.78 10.26-14.36z" fill="#68e1fd"/><path d="m199 86.48-23.77 14.41s-4.75.86-5.76-3.46-10.66-9.51-17.58-5.62-.58 9.36 6.77 10.23 6.77 2.59 5.19 4.47-21.32 13.11-21.32 13.11l23.63 14.12s4.32 1.73 2.59 4-6.63-3.31-12 2.16 5.47 10.37 12 9.51 6.92-3.46 6.92-5.47 1.87-2.88 3.75-2 28.53 15.42 28.53 15.42l22.17-13.36s-10.09.58-14.12-4.61-2.88-10.95 4.9-11.81 18.59 2.74 18.3 10.37l24.35-13.11-28-16.28s-4 12-18.87 8.79-8.68-13.82 10.32-14.35z" fill="#68e1fd"/><path d="m148.91 80.56v15s2.76 3.44 9.09 2.81 9-9.7 9-9.7" fill="#68e1fd"/><path d="m142.51 104.7v14.92l13.92 6.76-1 2.46-.08 14.45s7.29 1.67 10.88 0 5.17-7.15 8.88-7.52 40.89 10.87 40.89 10.87l14.12-2.64v-14.95s-18.87 8.95-25.41.17" fill="#68e1fd"/><path d="m263.55 124.81v-14.92l-36.55-6.89v-15s-11.89-.29-12.06-.23-16.29 4.09-8.86 13.65-4.51 18.19 6.24 19.91" fill="#68e1fd"/><g fill="#00275e" opacity=".36"><path d="m199 86.48-23.77 14.41s-4.75.86-5.76-3.46-10.66-9.51-17.58-5.62-.58 9.36 6.77 10.23 6.77 2.59 5.19 4.47-21.32 13.11-21.32 13.11l23.63 14.12s4.32 1.73 2.59 4-6.63-3.31-12 2.16 5.47 10.37 12 9.51 6.92-3.46 6.92-5.47 1.87-2.88 3.75-2 28.53 15.42 28.53 15.42l22.17-13.36s-10.09.58-14.12-4.61-2.88-10.95 4.9-11.81 18.59 2.74 18.3 10.37l24.35-13.11-28-16.28s-4 12-18.87 8.79-8.68-13.82 10.32-14.35z"/><path d="m148.91 80.56v15s2.76 3.44 9.09 2.81 9-9.7 9-9.7"/><path d="m142.51 104.7v14.92l13.92 6.76-1 2.46-.08 14.45s7.29 1.67 10.88 0 5.17-7.15 8.88-7.52 40.89 10.87 40.89 10.87l14.12-2.64v-14.95s-18.87 8.95-25.41.17"/><path d="m263.55 124.81v-14.92l-36.55-6.89v-15s-11.89-.29-12.06-.23-16.29 4.09-8.86 13.65-4.51 18.19 6.24 19.91"/></g><path d="m199 71.57-23.78 14.43s-4.75.86-5.76-3.46-10.66-9.54-17.58-5.64-.58 9.36 6.77 10.23 6.77 2.59 5.19 4.47-21.32 13.11-21.32 13.11l23.63 14.12s4.32 1.73 2.59 4-6.63-3.31-12 2.16 5.47 10.37 12 9.51 6.92-3.46 6.92-5.47 1.87-2.88 3.75-2 28.53 15.42 28.53 15.42l22.19-13.4s-10.09.58-14.12-4.61-2.88-10.95 4.9-11.81 18.59 2.74 18.3 10.37l24.35-13.11-28-16.28s-4 12-18.87 8.79-8.69-13.78 10.31-14.4z" fill="#68e1fd"/><path d="m181.08 50.54a1.28 1.28 0 0 1 .55-.78 4.24 4.24 0 0 1 .41-4.62 2.77 2.77 0 0 1 1.27-.76 4 4 0 0 1 1.69-2.57 4.38 4.38 0 0 1 2.72-3.88 4.78 4.78 0 0 1 .79-.35 1.29 1.29 0 0 1 .8 0 6.47 6.47 0 0 1 .83 0 5.09 5.09 0 0 1 7.45-1.8 3 3 0 0 1 .45-.42 5.12 5.12 0 0 1 3.94-.47 4 4 0 0 1 3 1.8 3 3 0 0 1 .22.5 2.87 2.87 0 0 1 3.5.88 3.24 3.24 0 0 1 .63 1.3 3.91 3.91 0 0 1 2.29.55 3.23 3.23 0 0 1 1.36 3 4.56 4.56 0 0 1 .44.58 4.4 4.4 0 0 1 2.83 2.06 3.6 3.6 0 0 1 .46 2.19 3.21 3.21 0 0 1 2.71 2.84 2.53 2.53 0 0 1 -1 2.47 3.33 3.33 0 0 1 .09 3.39 4 4 0 0 1 -1.19 1.32 3.13 3.13 0 0 1 .6 4 3.41 3.41 0 0 1 -2.43 1.61c0 .08-.06.17-.1.25a3.37 3.37 0 0 1 -.32.49c.37 1.45.59 3.26-1.17 3.7a3.63 3.63 0 0 1 -1.79 0 2.47 2.47 0 0 1 -3.26.58l-.43.13a1.42 1.42 0 0 1 -1.72-1 6.37 6.37 0 0 1 .12-3.69c-.15-.37-.31-.74-.48-1.1a1.4 1.4 0 0 1 -.37-.75c-.16-.31-.33-.62-.51-.93s-.51-.56-.75-.87a1.27 1.27 0 0 1 -1.35-1 3.6 3.6 0 0 1 .19-2.37 2.94 2.94 0 0 1 -1.55-2.32 3.53 3.53 0 0 1 0-.76 2.58 2.58 0 0 1 -1.78-.05 2.87 2.87 0 0 1 -1.6-1.46 3.9 3.9 0 0 1 -4.45 1 3 3 0 0 1 -1.44-1.58 3.76 3.76 0 0 1 -1.79.44 1.94 1.94 0 0 1 -1.74-1 3.08 3.08 0 0 1 -1 .61l-.41 5.06a1.57 1.57 0 0 1 -.05.3 1.44 1.44 0 0 1 -1.56 2.11 6.91 6.91 0 0 1 -5.1-8.63z" fill="#312725"/><path d="m228 116s-.85-13.56-1.16-16.92c-.29-3-1.3-16.36-9.63-20.57-10.54-5.32-22.68-12.23-33.9-9-9.09 2.61-12.2 34.09-12.1 36.19.15 3.79 28.36 23.72 56.79 10.3z" fill="#ff8386"/><path d="m209.79 76.63c0 .62-10.8 12.62-12.6 11.52s-2.62-8.68-3.72-8-5.16 5.58-5.75 5.2.88-13.35 2.08-15.54 19.99 2 19.99 6.82z" fill="#2b415d"/><path d="m187.73 48.63s0 8.81 0 12.08c0 3.45 1.41 12.77 7.08 12.48s11.49-6.9 11.49-8.41c0 0 5.73-3.57 2.49-6.32s-3.49 1.9-3.49 1.9-1.76-2.56-1.88-9.41a29.93 29.93 0 0 1 -15.69-2.32z" fill="#c27a62"/><path d="m206 73.92c-2.89 2.67-7.6 3.16-12 2.54a1.42 1.42 0 0 1 -1.31-1.23c-.07-1.33-.15-2.67-.27-4l15-7.31-1.16 9.54s-.03.17-.26.46z" fill="#c27a62"/><path d="m195.78 76.63c-.58 0-1.16-.1-1.74-.19a1.37 1.37 0 0 1 -1.26-1.19c0-.69-.07-1.39-.11-2.08 3.17 0 8.81-.75 11.78-6.61a12.79 12.79 0 0 1 -8.67 10.07z" fill="#a8523b"/><path d="m211.07 120.53h-.84q.12-8.5 0-17a.93.93 0 0 1 1.86 0q.08 8.45 0 16.89z" fill="#bc424b"/><path d="m180.33 113.42-.19-.09-.5-.28-.59-.33-.49-.27q0-10.1.6-20.19c.07-1.19 1.93-1.2 1.86 0q-.58 10.4-.6 20.81a.93.93 0 0 1 -.09.35z" fill="#bc424b"/><path d="m185 49.43a1.31 1.31 0 0 1 1.15-1 3.08 3.08 0 0 1 0-.61c.06-1.79 2.85-1.8 2.8 0a.54.54 0 0 0 .12.36 1.54 1.54 0 0 1 1.4-1.39 1.32 1.32 0 0 1 .66-.18 1.41 1.41 0 0 1 1.4 1.4 3.62 3.62 0 0 1 -.13.7c.26.39.53.78.82 1.15s1.61 1.49 1.94.95a1.37 1.37 0 0 1 .91-2.34 1.31 1.31 0 0 1 1-.47 1.41 1.41 0 0 1 1.4 1.4v.19a4 4 0 0 0 2.76-.18 1 1 0 0 1 .37-.07 2.49 2.49 0 0 1 .21-.4 1.44 1.44 0 0 1 1.91-.5 1.41 1.41 0 0 1 .5 1.91 1.45 1.45 0 0 0 -.13.2s0 0 0 0a1.18 1.18 0 0 1 .62 0 1.4 1.4 0 0 1 2.69.76 3.09 3.09 0 0 1 -1.9 2.18v.27a1.27 1.27 0 0 1 .9 2 4.68 4.68 0 0 1 -.68.76c.06.18.12.37.18.56a1.53 1.53 0 0 1 .07.16 7.43 7.43 0 0 1 -.53 6 1.41 1.41 0 0 1 -2.41 0 11.83 11.83 0 0 1 -1.17-5.72 3.63 3.63 0 0 1 -.54-.17 3.94 3.94 0 0 1 -2.32-2.28 4 4 0 0 1 -2.65-1.87 3.37 3.37 0 0 1 -2.37.43 4.49 4.49 0 0 1 -2.56-1.63 3.53 3.53 0 0 1 -3.18 1.69 3.58 3.58 0 0 1 -3.24-4.26z" fill="#312725"/><path d="m91.61 176.31s.81-13 1.12-16.23c.27-2.91 1.27-15.69 9.27-19.73 10.11-5.1 21.76-11.73 32.52-8.64 8.72 2.5 11.7 32.7 11.6 34.71-.2 3.58-27.27 22.74-54.51 9.89z" fill="#8ea7d9"/><path d="m109 136.81s-1.87 11.32 8.8 12.22c7.46.63 5.81-5.43 5.81-5.43s3.65 3 7.53.68-2.47-11.31-5.37-11.92-9.87-.41-16.77 4.45z" fill="#fff"/><circle cx="106.64" cy="108.35" fill="#f4c458" r="8.43" transform="matrix(.66848184 -.74372847 .74372847 .66848184 -45.23 115.24)"/><path d="m130.65 115.38a10.16 10.16 0 0 0 2.2-5.89 9.56 9.56 0 0 0 -.14-3.1 4.32 4.32 0 0 0 -2-2.5 10.33 10.33 0 0 1 -2-1.68s-22-4.28-24.56 8.56c-.46 3.6-.2 14.44 9.66 19s5.39-11.77 5.39-11.77" fill="#f4c458"/><path d="m125.31 133.64-13.15-6.43 1.11 9.15s.09.18.26.45c2.39 2.2 6.06 2.85 9.69 2.61a1.65 1.65 0 0 0 1.53-1.49c.15-1.44.32-2.87.56-4.29z" fill="#fcded2"/><path d="m131.07 112.94s.78-4.29-4.06-5c-1.29-.2-2.53-.21-3.32 1-1 1.49-1.1 3.25-2.51 4.51a4.92 4.92 0 0 1 -5.14.82c0 1.43.17 2.5 1.92 3s11.75-1.53 13.11-4.33z" fill="#fcded2"/><path d="m113.66 108.87c5.25-1.87 10.25-3 15.81-2.22a1 1 0 0 1 .91.94c.41-2.23.95-7.86-3.59-9.56-5.7-2.14-15.22.56-17.85 5.7a16.34 16.34 0 0 0 -1.82 8.21 22.57 22.57 0 0 1 6.54-3.07z" fill="#f4c458"/><path d="m125 136-.21 1.92s-8.75-.25-10-7.36z" fill="#eab1a2"/><path d="m131.1 112.55s0 8.45 0 11.59c0 3.31-3.27 12-6.79 12-5.49 0-11-6.62-11-8.07 0 0-5.5-3.42-2.39-6.06s3.35 1.82 3.35 1.82 1.69-2.45 1.8-9a28.71 28.71 0 0 0 15.03-2.28z" fill="#fcded2"/><path d="m138.92 173a16.29 16.29 0 0 0 1.47-1 98.19 98.19 0 0 0 -2.63-19.55c-.27-1.12-2-.65-1.72.48a96 96 0 0 1 2.61 20.24z" fill="#5d84c1"/><path d="m105.37 180.37a5.34 5.34 0 0 1 .76.07l.66-22.56a.89.89 0 0 0 -1.79 0l-.65 22.41a6.22 6.22 0 0 1 1.02.08z" fill="#5d84c1"/><path d="m316.47 180.5s-.86-13.81-1.19-17.23c-.29-3.09-1.32-16.66-9.81-20.95-10.73-5.42-23.09-12.45-34.52-9.17-9.26 2.66-12.42 34.71-12.32 36.84.2 3.85 28.92 24.15 57.84 10.51z" fill="#4b1b13"/><path d="m299.56 139.44c-.2-.1-6.27 4.44-6.55 11.18s-1.31 34.38-1.31 34.38-14.72-.87-23.85-7.21c0 0 2.07-32.06 5-38.34s11-6.28 11-6.28z" fill="#68e1fd"/><path d="m299.56 139.44c-.2-.1-6.27 4.44-6.55 11.18s-1.31 34.38-1.31 34.38-14.72-.87-23.85-7.21c0 0 2.07-32.06 5-38.34s11-6.28 11-6.28z" fill="#fff"/><path d="m276 114.88a13.29 13.29 0 0 1 -3.59-6.16c-1.32-4.3.88-10.54 5.54-11.12s6.05 1.84 6.05 1.84 17.4-3.08 20.08 10.56c.49 3.82 2.58 17.66-8.71 20.69s-7.23-13-7.23-13" fill="#4b1b13"/><path d="m275.5 111.87s0 9 0 12.3c0 3.51 1.44 13 7.21 12.7s11.7-7 11.7-8.56c0 0 5.84-3.63 2.54-6.43s-3.55 1.93-3.55 1.93-1.79-2.6-1.91-9.58a30.47 30.47 0 0 1 -15.99-2.36z" fill="#ffac73"/><path d="m294.15 137.62c-2.95 2.72-7.74 3.22-12.17 2.59a1.45 1.45 0 0 1 -1.33-1.25c-.07-1.36-.16-2.71-.27-4.07l15.24-7.45-1.18 9.71s-.11.18-.29.47z" fill="#ffac73"/><path d="m283.7 140.39c-.59 0-1.19-.11-1.77-.19a1.39 1.39 0 0 1 -1.28-1.21c0-.71-.07-1.41-.12-2.12 3.23 0 9-.76 12-6.73a13 13 0 0 1 -8.83 10.25z" fill="#e5894a"/></svg>